<svg xmlns="http://www.w3.org/2000/svg" viewBox="196 53.949951171875 131.910693359375 167.050048828125" width="131.910693359375" height="167.050048828125"><title>ASYA’DA EĞİTİM / EDUCATION IN ASIA — human typography review pending</title><rect x="196" y="53.949951171875" width="131.910693359375" height="167.050048828125" fill="#F7F3E9"/><path d="M15.6 -43.75 0.0 -33.0Q4.625 -23.625 12.1875 -15.4625Q19.75 -7.300000000000001 29.85 -2.4000000000000004Q39.95 2.5 51.800000000000004 2.5Q60.50000000000001 2.5 68.5125 -0.3250000000000002Q76.525 -3.1500000000000004 82.875 -8.425Q89.225 -13.700000000000001 92.88749999999999 -21.2875Q96.55 -28.875 96.55 -38.375Q96.55 -47.800000000000004 93.275 -54.675000000000004Q90.0 -61.550000000000004 84.775 -66.5125Q79.55 -71.47500000000001 73.3 -74.78750000000001Q67.05 -78.10000000000001 61.1 -80.22500000000001Q49.400000000000006 -84.275 42.337500000000006 -88.325Q35.275000000000006 -92.375 32.1375 -97.0Q29.0 -101.625 29.0 -107.22500000000001Q29.0 -113.60000000000001 33.9125 -118.61250000000001Q38.825 -123.625 49.37500000000001 -123.625Q57.025 -123.625 62.5125 -120.65Q68.0 -117.67500000000001 71.9875 -112.9375Q75.975 -108.2 78.65 -103.025L95.5 -112.625Q92.05 -120.0 85.88749999999999 -126.7625Q79.725 -133.525 70.875 -137.8875Q62.025 -142.25 50.075 -142.25Q37.925000000000004 -142.25 28.35 -137.53750000000002Q18.775 -132.82500000000002 13.3 -124.47500000000001Q7.825000000000001 -116.125 7.825000000000001 -105.30000000000001Q7.825000000000001 -95.575 11.55 -88.825Q15.275 -82.075 21.087500000000002 -77.4625Q26.900000000000006 -72.85000000000001 33.3125 -69.8875Q39.725 -66.925 44.900000000000006 -65.10000000000001Q53.325 -62.1 60.2375 -58.712500000000006Q67.14999999999999 -55.325 71.2375 -50.175000000000004Q75.325 -45.025000000000006 75.325 -36.45Q75.325 -27.475 68.925 -21.7875Q62.525 -16.1 52.075 -16.1Q43.95 -16.1 37.4125 -19.575000000000003Q30.875 -23.05 25.587500000000002 -29.2875Q20.300000000000004 -35.525 15.6 -43.75Z" fill="#1D2027" transform="translate(208,209)"/></svg>