<svg xmlns="http://www.w3.org/2000/svg" viewBox="0 55 1012 165" width="1012" height="165"><title>ASYA’DA EĞİTİM / EDUCATION IN ASIA — human typography review pending</title><rect x="0" y="55" width="1012" height="165" fill="#F7F3E9"/><line x1="34" x2="937" y1="69" y2="69" stroke="#bfb8a7" stroke-width="0.5" stroke-dasharray="4 4"/><line x1="34" x2="937" y1="209" y2="209" stroke="#bfb8a7" stroke-width="0.5" stroke-dasharray="4 4"/><path data-glyph="A" d="M33.1501220703125 -33.85693359375H107.1501220703125L103.185888671875 -55.1499267578125H37.11435546875ZM69.7501220703125 -97.542578125 91.442919921875 -47.182019042968754 91.48216552734375 -40.671240234375006 109.98211669921875 0.0H139.500244140625L69.7501220703125 -148.01788330078125L0.0 0.0H29.51812744140625L48.41807861328125 -41.939099121093754L48.321606445312504 -47.710583496093754Z" transform="translate(42.000000,209.000000)" fill="#1D2027"/><path data-glyph="S" d="M19.0287109375 -46.0643798828125 0.0 -32.65712890625Q4.667858886718751 -22.98211669921875 12.680377197265626 -14.712469482421875Q20.6928955078125 -6.442822265625001 31.478637695312504 -1.5428222656250004Q42.264379882812506 3.357177734375 54.885839843750006 3.357177734375Q64.100146484375 3.357177734375 72.64838256835938 0.48931884765625Q81.19661865234376 -2.3785400390625 87.97520751953127 -7.782116699218751Q94.75379638671876 -13.185693359375001 98.69487915039063 -21.094635009765625Q102.6359619140625 -29.003576660156252 102.6359619140625 -39.01788330078125Q102.6359619140625 -48.14287109375 99.57525634765625 -54.975012207031256Q96.51455078125001 -61.8071533203125 91.41812744140626 -66.87680053710938Q86.3217041015625 -71.94644775390626 79.985986328125 -75.45181274414062Q73.6502685546875 -78.95717773437501 67.10024414062501 -81.29647216796876Q56.257421875000006 -85.08931884765626 49.25921020507813 -88.71072998046876Q42.260998535156254 -92.33214111328125 38.88777465820313 -96.485693359375Q35.51455078125 -100.63924560546876 35.51455078125 -105.89637451171876Q35.51455078125 -111.5427734375 39.934173583984375 -115.71952514648439Q44.353796386718756 -119.89627685546876 53.44659423828125 -119.89627685546876Q60.15369873046875 -119.89627685546876 65.27689819335939 -117.3070068359375Q70.40009765625001 -114.71773681640626 74.36616821289064 -110.43025512695314Q78.33223876953126 -106.14277343750001 81.13581542968751 -101.01063232421876L101.843115234375 -112.66785888671876Q98.30739746093751 -120.0 91.86631469726564 -126.86964721679688Q85.42523193359375 -133.73929443359376 75.97520751953125 -138.2089416503906Q66.52518310546876 -142.6785888671875 53.63228759765625 -142.6785888671875Q40.88226318359375 -142.6785888671875 30.6643798828125 -137.9446594238281Q20.44649658203125 -133.21072998046876 14.500048828125001 -124.60357666015625Q8.55360107421875 -115.99642333984376 8.55360107421875 -104.44282226562501Q8.55360107421875 -94.50352783203125 12.321459960937501 -87.49637451171876Q16.08931884765625 -80.48922119140626 21.923248291015625 -75.68385620117188Q27.757177734375 -70.8784912109375 34.19110717773438 -67.80884399414063Q40.625036621093756 -64.73919677734375 45.757177734375006 -62.871337890625Q54.910778808593754 -59.528466796875 61.50183715820313 -56.333831787109375Q68.0928955078125 -53.139196777343756 71.64465942382813 -48.760656738281256Q75.19642333984376 -44.382116699218756 75.19642333984376 -37.2214599609375Q75.19642333984376 -29.31793212890625 69.48216552734377 -24.509039306640624Q63.76790771484376 -19.700146484375 54.603674316406256 -19.700146484375Q46.9501220703125 -19.700146484375 40.519769287109376 -22.96085205078125Q34.08941650390625 -26.2215576171875 28.823345947265626 -32.180474853515626Q23.557275390625 -38.13939208984375 19.0287109375 -46.0643798828125Z" transform="translate(205.565474,209.000000)" fill="#1D2027"/><path data-glyph="Y" d="M92.48931884765625 -140.0 61.1072998046875 -81.85017089843751 29.857421875 -140.0H0.0L47.957177734375 -58.299951171875V0.0H74.45742187500001V-58.56781005859375L122.34674072265625 -140.0Z" transform="translate(327.266667,209.000000)" fill="#1D2027"/><path data-glyph="A" d="M33.1501220703125 -33.85693359375H107.1501220703125L103.185888671875 -55.1499267578125H37.11435546875ZM69.7501220703125 -97.542578125 91.442919921875 -47.182019042968754 91.48216552734375 -40.671240234375006 109.98211669921875 0.0H139.500244140625L69.7501220703125 -148.01788330078125L0.0 0.0H29.51812744140625L48.41807861328125 -41.939099121093754L48.321606445312504 -47.710583496093754Z" transform="translate(442.678638,209.000000)" fill="#1D2027"/><path data-glyph="’" d="M 15.0 0 C 6.6 0 0 6.37 0 15.19 C 0 22.05 3.9000000000000004 26.46 12.0 27.929999999999996 C 12.0 34.79 7.800000000000001 41.65 3.9000000000000004 49 C 16.5 46.059999999999995 30 29.4 30 15.19 C 30 4.9 24.0 0 15.0 0 Z" transform="translate(578.244112,68.000000)" fill="#BD2120"/><path data-glyph="D" d="M0.0 -140.0V0.0H26.771679687500004V-140.0ZM46.41082763671875 0.0Q68.16800537109376 0.0 84.54480590820313 -8.6642822265625Q100.9216064453125 -17.328564453125 110.02339477539063 -33.028564453125Q119.12518310546875 -48.728564453125 119.12518310546875 -70.0Q119.12518310546875 -91.33929443359375 110.02339477539063 -107.00536499023437Q100.9216064453125 -122.671435546875 84.54480590820313 -131.3357177734375Q68.16800537109376 -140.0 46.41082763671875 -140.0H16.525183105468752V-115.87481689453125H45.73223876953125Q55.49647216796875 -115.87481689453125 64.00715332031251 -113.09091186523438Q72.51783447265626 -110.3070068359375 78.83924560546876 -104.66239624023439Q85.16065673828126 -99.01778564453126 88.72315063476563 -90.37138671875002Q92.28564453125 -81.72498779296876 92.28564453125 -70.0Q92.28564453125 -58.27501220703125 88.72315063476563 -49.628613281250004Q85.16065673828126 -40.982214355468756 78.83924560546876 -35.33760375976563Q72.51783447265626 -29.6929931640625 64.00715332031251 -26.909088134765625Q55.49647216796875 -24.12518310546875 45.73223876953125 -24.12518310546875H16.525183105468752V0.0Z" transform="translate(641.309342,209.000000)" fill="#1D2027"/><path data-glyph="A" d="M33.1501220703125 -33.85693359375H107.1501220703125L103.185888671875 -55.1499267578125H37.11435546875ZM69.7501220703125 -97.542578125 91.442919921875 -47.182019042968754 91.48216552734375 -40.671240234375006 109.98211669921875 0.0H139.500244140625L69.7501220703125 -148.01788330078125L0.0 0.0H29.51812744140625L48.41807861328125 -41.939099121093754L48.321606445312504 -47.710583496093754Z" transform="translate(783.499756,209.000000)" fill="#1D2027"/></svg>