<svg xmlns="http://www.w3.org/2000/svg" viewBox="0 0 969.0 942.25" width="969.0" height="942.25"><title>ASYA’DA EĞİTİM / EDUCATION IN ASIA — human typography review pending</title><rect x="0" y="0" width="969.0" height="942.25" fill="#F7F3E9"/><g data-canonical-sha256="8f5d46f0302c4cc7e3765d3bfce9445f842dbd92f1e0f8fbe99f9f509c77e11a" transform="translate(299.5,44.0) scale(0.925)"><rect xmlns="http://www.w3.org/2000/svg" x="0" y="0" width="400" height="370" rx="21" fill="#BD2120" />
    <path xmlns="http://www.w3.org/2000/svg" d="M208.00 122.00 C231.37 118.48 247.64 97.24 245.52 73.71 C243.40 50.17 223.61 32.18 199.98 32.32 C176.35 32.45 156.76 50.67 154.91 74.23 C153.07 97.79 169.57 118.83 192.89 122.65 L193.0 122.0 L194.0 121.0 L194.0 120.0 L195.0 119.0 L196.0 118.0 L197.0 117.0 L199.0 116.0 L202.0 116.0 L204.0 117.0 L205.0 118.0 L206.0 119.0 L206.0 120.0 L207.0 121.0 L208.0 122.0Z" fill="#FFFFFF" />
  <path xmlns="http://www.w3.org/2000/svg" d="M199.00 122.00 C196.33 124.58 173.83 151.75 171.00 155.00 C168.17 158.25 165.75 160.50 165.00 161.00 C164.25 161.50 162.50 160.75 162.00 161.00 C161.50 161.25 161.83 160.75 159.00 164.00 C156.17 167.25 130.83 197.08 128.00 200.00 C125.17 202.92 126.08 200.00 125.00 199.00 C123.92 198.00 116.33 189.17 115.00 188.00 C113.67 186.83 111.50 187.58 109.00 185.00 C106.50 182.42 87.42 159.25 85.00 157.00 C82.58 154.75 83.58 154.17 80.00 158.00 C76.42 161.83 48.67 195.50 42.00 203.00 C35.33 210.50 3.50 243.50 0.00 248.00 C-3.50 252.50 -0.42 256.50 0.00 257.00 C0.42 257.50 1.08 257.33 5.00 254.00 C8.92 250.67 43.00 220.42 47.00 217.00 C51.00 213.58 51.33 213.67 53.00 213.00 C54.67 212.33 64.00 211.17 67.00 209.00 C70.00 206.83 84.25 185.75 89.00 187.00 C93.75 188.25 120.33 220.67 124.00 224.00 C127.67 227.33 130.67 225.83 133.00 227.00 C135.33 228.17 145.92 235.58 152.00 238.00 C158.08 240.42 200.83 254.08 206.00 256.00 C211.17 257.92 213.08 260.08 214.00 261.00 C214.92 261.92 216.83 266.00 217.00 267.00 C217.17 268.00 216.33 272.25 216.00 273.00 C215.67 273.75 214.58 275.17 213.00 276.00 C211.42 276.83 203.75 281.25 197.00 283.00 C190.25 284.75 139.58 295.08 132.00 297.00 C124.42 298.92 109.08 304.58 106.00 306.00 C102.92 307.42 96.25 312.67 95.00 314.00 C93.75 315.33 91.25 320.83 91.00 322.00 C90.75 323.17 91.58 327.00 92.00 328.00 C92.42 329.00 94.50 332.83 96.00 334.00 C97.50 335.17 107.67 340.92 110.00 342.00 C112.33 343.08 117.92 345.50 124.00 347.00 C130.08 348.50 176.67 358.50 183.00 360.00 C189.33 361.50 198.08 364.25 200.00 365.00 C201.92 365.75 199.17 368.67 206.00 369.00 C212.83 369.33 276.42 369.92 282.00 369.00 C287.58 368.08 274.50 359.42 273.00 358.00 C271.50 356.58 267.50 353.58 264.00 352.00 C260.50 350.42 237.58 341.25 231.00 339.00 C224.42 336.75 189.25 326.50 185.00 325.00 C180.75 323.50 180.67 321.83 180.00 321.00 C179.33 320.17 177.17 315.75 177.00 315.00 C176.83 314.25 177.50 312.67 178.00 312.00 C178.50 311.33 181.83 307.83 183.00 307.00 C184.17 306.17 187.08 303.67 192.00 302.00 C196.92 300.33 237.08 288.58 242.00 287.00 C246.92 285.42 249.75 283.67 251.00 283.00 C252.25 282.33 256.17 279.75 257.00 279.00 C257.83 278.25 260.58 274.67 261.00 274.00 C261.42 273.33 262.00 271.75 262.00 271.00 C262.00 270.25 262.50 266.42 261.00 265.00 C259.50 263.58 246.83 255.33 244.00 254.00 C241.17 252.67 231.00 250.00 227.00 249.00 C223.00 248.00 201.83 243.08 196.00 242.00 C190.17 240.92 161.67 238.17 157.00 236.00 C152.33 233.83 141.25 217.92 140.00 216.00 C138.75 214.08 139.25 215.75 142.00 213.00 C144.75 210.25 168.33 187.83 173.00 183.00 C177.67 178.17 195.67 157.58 198.00 155.00 C200.33 152.42 200.58 152.25 201.00 152.00 C201.42 151.75 199.58 148.17 203.00 152.00 C206.42 155.83 237.58 193.83 242.00 198.00 C246.42 202.17 253.00 200.25 256.00 202.00 C259.00 203.75 272.67 215.25 278.00 219.00 C283.33 222.75 316.42 244.83 320.00 247.00 C323.58 249.17 323.33 247.75 321.00 245.00 C318.67 242.25 294.42 216.83 292.00 214.00 C289.58 211.17 290.25 213.17 292.00 211.00 C293.75 208.83 311.00 189.92 313.00 188.00 C315.00 186.08 314.33 186.42 316.00 188.00 C317.67 189.58 329.92 204.67 333.00 207.00 C336.08 209.33 347.58 212.08 353.00 216.00 C358.42 219.92 394.17 251.50 398.00 254.00 C401.83 256.50 402.75 250.75 399.00 246.00 C395.25 241.25 357.58 202.08 353.00 197.00 C348.42 191.92 346.58 188.00 344.00 185.00 C341.42 182.00 324.08 163.00 322.00 161.00 C319.92 159.00 319.50 160.83 319.00 161.00 C318.50 161.17 318.08 160.75 316.00 163.00 C313.92 165.25 296.33 185.67 294.00 188.00 C291.67 190.33 289.08 190.08 288.00 191.00 C286.92 191.92 281.83 198.33 281.00 199.00 C280.17 199.67 281.08 202.08 278.00 199.00 C274.92 195.92 247.50 165.17 244.00 162.00 C240.50 158.83 238.67 163.42 236.00 161.00 C233.33 158.58 214.75 136.08 212.00 133.00 C209.25 129.92 204.08 124.92 203.00 124.00 C201.92 123.08 201.67 119.42 199.00 122.00Z" fill="#FFFFFF" />
</g><g data-wordmark="review" data-native-offset="4" transform="translate(2.0,407.25)"><path data-glyph="A" d="M35.750341796875 -29.3994140625H109.750341796875L106.90048828125 -53.589794921875004H38.600195312500006ZM72.350341796875 -91.59921875 92.78017578125001 -44.544653320312506 91.9650634765625 -36.65947265625 109.4249267578125 0.0H144.70068359375L72.350341796875 -148.5750732421875L0.0 0.0H35.2757568359375L53.1356201171875 -37.9644775390625L52.110498046875 -44.924633789062504Z" transform="translate(42.000000,209.000000)" fill="#1D2027"/><path data-glyph="S" d="M22.000390625 -48.070263671875004 0.0 -32.3599609375Q4.705004882812499 -22.4249267578125 13.10755615234375 -14.06241455078125Q21.510107421875002 -5.699902343750001 32.890185546875 -0.7999023437500004Q44.270263671875 4.10009765625 57.5603515625 4.10009765625Q67.22041015625001 4.10009765625 76.23297119140625 1.1950927734375Q85.2455322265625 -1.709912109375 92.39558105468751 -7.224926757812501Q99.5456298828125 -12.73994140625 103.72816162109376 -20.927478027343753Q107.910693359375 -29.1150146484375 107.910693359375 -39.5750732421875Q107.910693359375 -48.440039062500006 105.03571777343751 -55.2350341796875Q102.1607421875 -62.030029296875 97.1757568359375 -67.19254150390626Q92.190771484375 -72.3550537109375 85.78076171875 -76.02757568359375Q79.37075195312501 -79.70009765625001 72.30068359375001 -82.22512207031251Q62.200781250000006 -85.7950927734375 55.25828857421875 -89.0450439453125Q48.3157958984375 -92.29499511718751 44.73826904296875 -96.03994140625001Q41.160742187500006 -99.7848876953125 41.160742187500006 -104.7448486328125Q41.160742187500006 -109.759765625 45.15318603515625 -113.21217041015626Q49.1456298828125 -116.66457519531251 56.9754638671875 -116.66457519531251Q62.8653564453125 -116.66457519531251 67.67281494140624 -114.40961914062501Q72.4802734375 -112.1546630859375 76.42777099609376 -108.25721435546876Q80.37526855468751 -104.35976562500001 83.29028320312501 -99.2647705078125L107.34072265625001 -112.7050048828125Q103.73071289062501 -120.0 97.04818115234376 -126.96251220703125Q90.3656494140625 -133.9250244140625 80.39558105468751 -138.48753662109374Q70.4255126953125 -143.050048828125 56.7154052734375 -143.050048828125Q43.44533691406251 -143.050048828125 32.670263671875006 -138.29754638671875Q21.8951904296875 -133.5450439453125 15.540136718749999 -124.7150146484375Q9.1850830078125 -115.8849853515625 9.1850830078125 -103.69990234375001Q9.1850830078125 -93.5748779296875 12.990087890624999 -86.3448486328125Q16.7950927734375 -79.11481933593751 22.64759521484375 -74.14229736328126Q28.500097656250002 -69.169775390625 34.95260009765625 -66.00726318359375Q41.4051025390625 -62.8447509765625 46.500097656250006 -60.93974609375Q56.28518066406251 -57.29970703125 62.59764404296876 -54.27222900390625Q68.91010742187501 -51.2447509765625 71.99754638671877 -47.5348388671875Q75.08498535156251 -43.824926757812506 75.08498535156251 -37.890087890625004Q75.08498535156251 -30.915209960937503 69.9650634765625 -26.867810058593754Q64.8451416015625 -22.820410156250002 56.7952880859375 -22.820410156250002Q49.550341796875 -22.820410156250002 43.21285400390625 -25.8953857421875Q36.8753662109375 -28.970361328125 31.62786865234375 -34.68782958984375Q26.380371093750004 -40.4052978515625 22.000390625 -48.070263671875004Z" transform="translate(205.528328,209.000000)" fill="#1D2027"/><path data-glyph="Y" d="M93.19509277343751 -140.0 64.450439453125 -85.490478515625 35.80078125 -140.0H0.0L48.70009765625 -57.259863281250006V0.0H80.40078125000001V-57.5648681640625L128.9958740234375 -140.0Z" transform="translate(327.266667,209.000000)" fill="#1D2027"/><path data-glyph="A" d="M35.750341796875 -29.3994140625H109.750341796875L106.90048828125 -53.589794921875004H38.600195312500006ZM72.350341796875 -91.59921875 92.78017578125001 -44.544653320312506 91.9650634765625 -36.65947265625 109.4249267578125 0.0H144.70068359375L72.350341796875 -148.5750732421875L0.0 0.0H35.2757568359375L53.1356201171875 -37.9644775390625L52.110498046875 -44.924633789062504Z" transform="translate(444.090186,209.000000)" fill="#1D2027"/><path data-glyph="’" d="M 15.0 0 C 6.6 0 0 6.37 0 15.19 C 0 22.05 3.9000000000000004 26.46 12.0 27.929999999999996 C 12.0 34.79 7.800000000000001 41.65 3.9000000000000004 49 C 16.5 46.059999999999995 30 29.4 30 15.19 C 30 4.9 24.0 0 15.0 0 Z" transform="translate(579.618514,68.000000)" fill="#BD2120"/><path data-glyph="D" d="M0.0 -140.0V0.0H32.120703125000006V-140.0ZM48.8253173828125 0.0Q71.3254150390625 0.0 88.01795654296876 -8.589990234375Q104.710498046875 -17.17998046875 113.86800537109374 -32.87998046875Q123.0255126953125 -48.57998046875 123.0255126953125 -70.0Q123.0255126953125 -91.5250244140625 113.86800537109374 -107.17252197265626Q104.710498046875 -122.82001953125001 88.01795654296876 -131.410009765625Q71.3254150390625 -140.0 48.8253173828125 -140.0H20.4255126953125V-111.9744873046875H47.7752685546875Q56.4251220703125 -111.9744873046875 64.230029296875 -109.69205322265626Q72.03493652343751 -107.40961914062501 77.98488769531251 -102.45220947265625Q83.93483886718751 -97.4947998046875 87.36732177734376 -89.4798828125Q90.7998046875 -81.4649658203125 90.7998046875 -70.0Q90.7998046875 -58.5350341796875 87.36732177734376 -50.520117187500006Q83.93483886718751 -42.505200195312504 77.98488769531251 -37.54779052734375Q72.03493652343751 -32.590380859375 64.230029296875 -30.30794677734375Q56.4251220703125 -28.0255126953125 47.7752685546875 -28.0255126953125H20.4255126953125V0.0Z" transform="translate(637.446159,209.000000)" fill="#1D2027"/><path data-glyph="A" d="M35.750341796875 -29.3994140625H109.750341796875L106.90048828125 -53.589794921875004H38.600195312500006ZM72.350341796875 -91.59921875 92.78017578125001 -44.544653320312506 91.9650634765625 -36.65947265625 109.4249267578125 0.0H144.70068359375L72.350341796875 -148.5750732421875L0.0 0.0H35.2757568359375L53.1356201171875 -37.9644775390625L52.110498046875 -44.924633789062504Z" transform="translate(778.299316,209.000000)" fill="#1D2027"/><path data-glyph="E" d="M20.279616176060273 0.0H90.37533046177455V-25.78992483956473H20.279616176060273ZM20.279616176060273 -113.21007516043527H90.37533046177455V-139.0H20.279616176060273ZM20.279616176060273 -60.737720598493304H86.40390189034598V-86.0063711983817H20.279616176060273ZM0.0 -139.0V0.0H29.910427420479913V-139.0Z" transform="translate(42.000000,409.000000)" fill="#1D2027"/><path data-glyph="Ğ" d="M76.12749110630581 -50.95822317940848H114.57552036830357Q112.78837751116072 -45.110401262555804 109.5938911655971 -40.04692679268973Q106.39940482003348 -34.98345232282366 101.74544756208147 -31.195784737723216Q97.09149030412947 -27.40811715262277 90.67523585728236 -25.32068106515067Q84.25898141043527 -23.23324497767857 76.22687377929688 -23.23324497767857Q63.61768502371652 -23.23324497767857 53.736368844168524 -28.932186802455355Q43.85505266462054 -34.631128627232144 38.1610799734933 -45.06596993582589Q32.46710728236607 -55.500811244419644 32.46710728236607 -69.5Q32.46710728236607 -83.69776018415179 38.36958966936384 -93.77267865862166Q44.27207205636161 -103.84759713309151 54.205515659877236 -109.28590183803013Q64.13895926339286 -114.72420654296874 76.22687377929688 -114.72420654296874Q88.98494262695313 -114.72420654296874 97.57301147460937 -109.14686305454799Q106.16108032226562 -103.56951956612723 111.15011474609375 -94.84738106863838L138.1813534109933 -109.62623901367188Q131.7029363141741 -119.35623901367187 122.75231462751117 -126.58675266810826Q113.80169294084821 -133.81726632254464 102.24976614815847 -137.92276454380578Q90.69783935546874 -142.02826276506696 76.22687377929688 -142.02826276506696Q59.884387032645094 -142.02826276506696 45.986823120117194 -136.87037475585936Q32.089259207589286 -131.7124867466518 21.775919276646206 -122.13389988490513Q11.462579345703123 -112.55531302315848 5.731289672851561 -99.18896161760603Q0.0 -85.82261021205358 0.0 -69.5Q0.0 -53.177389787946424 5.5749074009486606 -39.65465611049107Q11.149814801897321 -26.131922433035715 21.254645036969862 -16.34482587541853Q31.359475272042406 -6.557729317801339 45.100656912667404 -1.2434590366908482Q58.841838553292405 4.070811244419643 75.18432529994419 4.070811244419643Q92.6338623046875 4.070811244419643 106.1392524937221 -2.151937866210938Q119.6446426827567 -8.374686976841518 128.70448835100447 -19.335868617466517Q137.76433401925223 -30.297050258091517 142.08077802385603 -44.606664428710936Q146.39722202845982 -58.916278599330354 145.56318324497767 -75.18432529994419H76.12749110630581ZM43.81003958565849 -182.78509695870534Q43.81003958565849 -174.99111990792412 47.54567670549665 -168.38116620744978Q51.28131382533482 -161.77121250697544 58.59123665945871 -157.85688049316406Q65.9011594935826 -153.94254847935267 76.22687377929688 -153.94254847935267Q86.75115949358259 -153.94254847935267 93.96179661342076 -157.85688049316406Q101.17243373325893 -161.77121250697544 104.9080708530971 -168.38116620744978Q108.64370797293527 -174.99111990792412 108.64370797293527 -182.78509695870534H89.85366838727678Q89.85366838727678 -179.4738844517299 88.25515869140625 -176.67654096330915Q86.65664899553572 -173.8791974748884 83.61357578822545 -172.18890424455915Q80.57050258091517 -170.4986110142299 76.22687377929688 -170.4986110142299Q71.88324497767857 -170.4986110142299 68.8401717703683 -172.18890424455915Q65.79709856305804 -173.8791974748884 64.19858886718751 -176.67654096330915Q62.60007917131696 -179.4738844517299 62.60007917131696 -182.78509695870534Z" transform="translate(183.962217,409.000000)" fill="#1D2027"/><path data-glyph="İ" d="M0.8090961565290176 -139.0V0.0H32.28334629603795V-139.0ZM0.0 -169.34693551199777Q0.0 -162.68475742885045 4.840251290457589 -158.31365295410154Q9.680502580915178 -153.94254847935267 16.44693551199777 -153.94254847935267Q23.307685023716516 -153.94254847935267 28.100778023856027 -158.31365295410154Q32.89387102399554 -162.68475742885045 32.89387102399554 -169.34693551199777Q32.89387102399554 -176.10343017578126 28.100778023856027 -180.42737636021207Q23.307685023716516 -184.75132254464285 16.44693551199777 -184.75132254464285Q9.680502580915178 -184.75132254464285 4.840251290457589 -180.42737636021207Q0.0 -176.10343017578126 0.0 -169.34693551199777Z" transform="translate(403.247345,409.000000)" fill="#1D2027"/><path data-glyph="T" d="M0.0 -111.1249782017299H37.8279541015625V0.0H68.78093000139509V-111.1249782017299H106.60888410295759V-139.0H0.0Z" transform="translate(493.728103,409.000000)" fill="#1D2027"/><path data-glyph="İ" d="M0.8090961565290176 -139.0V0.0H32.28334629603795V-139.0ZM0.0 -169.34693551199777Q0.0 -162.68475742885045 4.840251290457589 -158.31365295410154Q9.680502580915178 -153.94254847935267 16.44693551199777 -153.94254847935267Q23.307685023716516 -153.94254847935267 28.100778023856027 -158.31365295410154Q32.89387102399554 -162.68475742885045 32.89387102399554 -169.34693551199777Q32.89387102399554 -176.10343017578126 28.100778023856027 -180.42737636021207Q23.307685023716516 -184.75132254464285 16.44693551199777 -184.75132254464285Q9.680502580915178 -184.75132254464285 4.840251290457589 -180.42737636021207Q0.0 -176.10343017578126 0.0 -169.34693551199777Z" transform="translate(655.923873,409.000000)" fill="#1D2027"/><path data-glyph="M" d="M41.17443533761161 -74.42862915039062 80.29768502371653 -12.907142857142857 119.42093470982142 -74.42862915039062 128.07857142857142 0.0H160.59537004743302L139.02533046177456 -145.95L80.29768502371653 -58.72316109793527L21.57003958565848 -145.95L0.0 0.0H32.51679861886161Z" transform="translate(762.404630,409.000000)" fill="#1D2027"/><path data-glyph="E" d="M1.899972534179688 0.0H19.39996337890625V-3.299957275390625H1.899972534179688ZM1.899972534179688 -31.700042724609375H19.39996337890625V-35.0H1.899972534179688ZM1.899972534179688 -17.44002685546875H18.39996337890625V-20.739984130859376H1.899972534179688ZM0.0 -35.0V0.0H3.5099548339843754V-35.0Z" transform="translate(42.000000,495.000000)" fill="#1D2027"/><path data-glyph="D" d="M0.0 -35.0V0.0H3.5099548339843754V-35.0ZM9.999969482421875 0.0Q15.099969482421876 0.0 19.01496734619141 -2.2Q22.92996520996094 -4.4 25.13996276855469 -8.325Q27.349960327148438 -12.25 27.349960327148438 -17.5Q27.349960327148438 -22.75 25.13996276855469 -26.675Q22.92996520996094 -30.6 19.01496734619141 -32.8Q15.099969482421876 -35.0 9.999969482421875 -35.0H1.9299743652343757V-31.490045166015626H9.999969482421875Q13.109979248046876 -31.490045166015626 15.669985961914064 -30.510041809082033Q18.22999267578125 -29.53003845214844 20.04999694824219 -27.700032043457032Q21.870001220703127 -25.870025634765625 22.855003356933594 -23.28501739501953Q23.840005493164064 -20.700009155273438 23.840005493164064 -17.5Q23.840005493164064 -14.299990844726564 22.855003356933594 -11.71498260498047Q21.870001220703127 -9.129974365234375 20.04999694824219 -7.299967956542969Q18.22999267578125 -5.469961547851563 15.669985961914064 -4.489958190917969Q13.109979248046876 -3.5099548339843754 9.999969482421875 -3.5099548339843754H1.9299743652343757V0.0Z" transform="translate(95.867863,495.000000)" fill="#1D2027"/><path data-glyph="U" d="M0.0 -35.0V-11.399993896484375Q0.0 -8.799993896484375 0.7849975585937501 -6.6149948120117195Q1.5699951171875002 -4.429995727539063 3.0849914550781254 -2.849996948242188Q4.599987792968751 -1.2699981689453126 6.7399841308593755 -0.3849990844726563Q8.87998046875 0.5 11.549978637695313 0.5Q14.219976806640627 0.5 16.359973144531253 -0.3849990844726563Q18.499969482421875 -1.2699981689453126 20.0149658203125 -2.849996948242188Q21.529962158203126 -4.429995727539063 22.314959716796878 -6.6149948120117195Q23.099957275390626 -8.799993896484375 23.099957275390626 -11.399993896484375V-35.0H19.590002441406252V-11.399993896484375Q19.590002441406252 -7.4999755859375 17.519995117187502 -5.154966735839844Q15.449987792968752 -2.809957885742188 11.549978637695313 -2.809957885742188Q7.649969482421875 -2.809957885742188 5.579962158203125 -5.154966735839844Q3.5099548339843754 -7.4999755859375 3.5099548339843754 -11.399993896484375V-35.0Z" transform="translate(157.685724,495.000000)" fill="#1D2027"/><path data-glyph="C" d="M3.7199523925781257 -17.5Q3.7199523925781257 -21.80001220703125 5.589955139160157 -25.040022277832033Q7.459957885742188 -28.280032348632815 10.534965515136719 -30.12003784179688Q13.609973144531251 -31.96004333496094 17.29998779296875 -31.96004333496094Q19.769985961914063 -31.96004333496094 21.8349853515625 -31.35004577636719Q23.89998474121094 -30.740048217773438 25.604985046386723 -29.61505126953125Q27.309985351562503 -28.490054321289065 28.54998779296875 -26.97005615234375V-31.59999694824219Q26.34998779296875 -33.54999694824219 23.749987792968753 -34.51499786376954Q21.14998779296875 -35.47999877929688 17.29998779296875 -35.47999877929688Q13.649987792968751 -35.47999877929688 10.504989624023438 -34.154998779296875Q7.359991455078125 -32.82999877929688 4.999993896484375 -30.40999908447266Q2.639996337890625 -27.98999938964844 1.3199981689453124 -24.69499969482422Q0.0 -21.400000000000002 0.0 -17.5Q0.0 -13.600000000000001 1.3199981689453124 -10.305000305175781Q2.639996337890625 -7.010000610351563 4.999993896484375 -4.5900009155273445Q7.359991455078125 -2.170001220703125 10.504989624023438 -0.8450012207031251Q13.649987792968751 0.479998779296875 17.29998779296875 0.479998779296875Q21.14998779296875 0.479998779296875 23.749987792968753 -0.48500213623046884Q26.34998779296875 -1.4500030517578126 28.54998779296875 -3.4000030517578126V-8.039944458007813Q27.299984741210938 -6.5199462890625 25.6099853515625 -5.389949035644531Q23.919985961914065 -4.259951782226563 21.859986877441408 -3.649954223632813Q19.79998779296875 -3.0399566650390626 17.29998779296875 -3.0399566650390626Q13.609973144531251 -3.0399566650390626 10.529965209960938 -4.889962768554688Q7.449957275390625 -6.739968872070313 5.5849548339843755 -9.999978637695314Q3.7199523925781257 -13.259988403320314 3.7199523925781257 -17.5Z" transform="translate(215.253581,495.000000)" fill="#1D2027"/><path data-glyph="A" d="M6.81998291015625 -11.120037841796876H25.049966430664064L23.84998474121094 -14.4199951171875H8.019964599609375ZM15.8499755859375 -28.560089111328125 22.300003051757812 -13.160009765625 22.629998779296876 -12.330020141601564 27.78000183105469 0.0H31.699951171875L15.8499755859375 -36.54998779296875L0.0 0.0H3.9199493408203123L9.159951782226562 -12.570016479492189L9.489947509765626 -13.330007934570313Z" transform="translate(275.271469,495.000000)" fill="#1D2027"/><path data-glyph="T" d="M0.0 -31.690042114257814H9.100006103515625V0.0H12.6099609375V-31.690042114257814H21.709967041015627V-35.0H0.0Z" transform="translate(333.439320,495.000000)" fill="#1D2027"/><path data-glyph="I" d="M0.0 -35.0V0.0H3.4999542236328125V-35.0Z" transform="translate(387.617188,495.000000)" fill="#1D2027"/><path data-glyph="O" d="M3.709951782226563 -17.5Q3.709951782226563 -21.670013427734375 5.504956054687501 -24.930023193359375Q7.299960327148439 -28.190032958984375 10.439968872070313 -30.080038452148436Q13.579977416992188 -31.9700439453125 17.569989013671876 -31.9700439453125Q21.610000610351562 -31.9700439453125 24.72500915527344 -30.080038452148436Q27.840017700195315 -28.190032958984375 29.635021972656254 -24.930023193359375Q31.43002624511719 -21.670013427734375 31.43002624511719 -17.5Q31.43002624511719 -13.339987182617188 29.635021972656254 -10.074977111816406Q27.840017700195315 -6.809967041015625 24.72500915527344 -4.919961547851562Q21.610000610351562 -3.0299560546875 17.569989013671876 -3.0299560546875Q13.579977416992188 -3.0299560546875 10.439968872070313 -4.919961547851562Q7.299960327148439 -6.809967041015625 5.504956054687501 -10.074977111816406Q3.709951782226563 -13.339987182617188 3.709951782226563 -17.5ZM0.0 -17.5Q0.0 -13.679998779296875 1.3099990844726563 -10.384999084472657Q2.6199981689453127 -7.089999389648438 4.994996643066406 -4.669999694824218Q7.3699951171875 -2.25 10.584992980957033 -0.8850006103515625Q13.799990844726564 0.479998779296875 17.569989013671876 0.479998779296875Q21.379986572265626 0.479998779296875 24.57498474121094 -0.8850006103515625Q27.76998291015625 -2.25 30.144981384277344 -4.669999694824218Q32.519979858398436 -7.089999389648438 33.829978942871094 -10.384999084472657Q35.13997802734375 -13.679998779296875 35.13997802734375 -17.5Q35.13997802734375 -21.360000610351562 33.829978942871094 -24.63500061035156Q32.519979858398436 -27.910000610351563 30.144981384277344 -30.33000030517578Q27.76998291015625 -32.75 24.57498474121094 -34.11499938964844Q21.379986572265626 -35.47999877929688 17.569989013671876 -35.47999877929688Q13.799990844726564 -35.47999877929688 10.584992980957033 -34.11499938964844Q7.3699951171875 -32.75 4.994996643066406 -30.33000030517578Q2.6199981689453127 -27.910000610351563 1.3099990844726563 -24.63500061035156Q0.0 -21.360000610351562 0.0 -17.5Z" transform="translate(425.585042,495.000000)" fill="#1D2027"/><path data-glyph="N" d="M26.54000244140625 -35.0V-7.329901123046875L0.0 -36.54998779296875V0.0H3.5099548339843754V-27.620095825195314L30.049957275390625 1.54998779296875V-35.0Z" transform="translate(494.192920,495.000000)" fill="#1D2027"/><path data-glyph="I" d="M0.0 -35.0V0.0H3.4999542236328125V-35.0Z" transform="translate(595.710777,495.000000)" fill="#1D2027"/><path data-glyph="N" d="M26.54000244140625 -35.0V-7.329901123046875L0.0 -36.54998779296875V0.0H3.5099548339843754V-27.620095825195314L30.049957275390625 1.54998779296875V-35.0Z" transform="translate(635.678632,495.000000)" fill="#1D2027"/><path data-glyph="A" d="M6.81998291015625 -11.120037841796876H25.049966430664064L23.84998474121094 -14.4199951171875H8.019964599609375ZM15.8499755859375 -28.560089111328125 22.300003051757812 -13.160009765625 22.629998779296876 -12.330020141601564 27.78000183105469 0.0H31.699951171875L15.8499755859375 -36.54998779296875L0.0 0.0H3.9199493408203123L9.159951782226562 -12.570016479492189L9.489947509765626 -13.330007934570313Z" transform="translate(735.196489,495.000000)" fill="#1D2027"/><path data-glyph="S" d="M2.8299652099609376 -10.3599853515625 0.0 -8.490011596679688Q0.9999908447265629 -6.130007934570313 2.689982604980469 -4.070005798339844Q4.379974365234375 -2.010003662109375 6.744970703125 -0.7650024414062501Q9.109967041015626 0.479998779296875 12.039971923828125 0.479998779296875Q14.169973754882813 0.479998779296875 16.054971313476564 -0.21500091552734377Q17.939968872070317 -0.9100006103515625 19.39496459960938 -2.1899993896484378Q20.84996032714844 -3.4699981689453128 21.67495727539063 -5.274995422363282Q22.499954223632816 -7.07999267578125 22.499954223632816 -9.29998779296875Q22.499954223632816 -11.6599853515625 21.674955749511724 -13.359983825683594Q20.84995727539063 -15.059982299804688 19.544958496093756 -16.269981384277344Q18.23995971679688 -17.47998046875 16.69496002197266 -18.27998046875Q15.149960327148436 -19.07998046875 13.719958496093751 -19.599981689453127Q10.789965820312501 -20.629980468750002 8.954962158203125 -21.724981689453127Q7.11995849609375 -22.819982910156252 6.269952392578125 -24.139988708496098Q5.4199462890625 -25.45999450683594 5.4199462890625 -27.140008544921876Q5.4199462890625 -29.180029296875002 6.894956970214844 -30.650035095214847Q8.369967651367189 -32.12004089355469 11.329974365234376 -32.12004089355469Q13.489981079101563 -32.12004089355469 14.97998504638672 -31.2900390625Q16.469989013671878 -30.460037231445312 17.47998962402344 -29.180035400390626Q18.489990234375004 -27.90003356933594 19.099987792968754 -26.580032348632812L22.129949951171877 -28.30000915527344Q21.35995483398438 -30.070004272460938 19.929959106445317 -31.71000213623047Q18.49996337890625 -33.35 16.424966430664064 -34.41499938964844Q14.349969482421875 -35.47999877929688 11.529971313476564 -35.47999877929688Q8.68997802734375 -35.47999877929688 6.474983215332031 -34.35500183105469Q4.259988403320312 -33.2300048828125 3.0049911499023434 -31.24500885009766Q1.749993896484375 -29.260012817382815 1.749993896484375 -26.700015258789065Q1.749993896484375 -24.380020141601562 2.6449920654296877 -22.75502166748047Q3.5399902343750003 -21.130023193359378 4.964988708496094 -20.005023193359378Q6.389987182617187 -18.880023193359374 8.00498809814453 -18.125021362304686Q9.619989013671875 -17.37001953125 11.0199951171875 -16.87001647949219Q13.0199951171875 -16.160015869140626 14.819996643066407 -15.230012512207033Q16.619998168945315 -14.300009155273438 17.744999694824223 -12.820004272460938Q18.870001220703127 -11.339999389648439 18.870001220703127 -8.899993896484375Q18.870001220703127 -6.259979248046875 17.054994201660158 -4.544969177246093Q15.239987182617186 -2.8299591064453127 12.159970092773438 -2.8299591064453127Q9.839956665039063 -2.8299591064453127 8.114952087402344 -3.8149642944335938Q6.389947509765625 -4.799969482421875 5.119950866699218 -6.504975891113281Q3.8499542236328126 -8.209982299804688 2.8299652099609376 -10.3599853515625Z" transform="translate(798.364340,495.000000)" fill="#1D2027"/><path data-glyph="I" d="M0.0 -35.0V0.0H3.4999542236328125V-35.0Z" transform="translate(855.332195,495.000000)" fill="#1D2027"/><path data-glyph="A" d="M6.81998291015625 -11.120037841796876H25.049966430664064L23.84998474121094 -14.4199951171875H8.019964599609375ZM15.8499755859375 -28.560089111328125 22.300003051757812 -13.160009765625 22.629998779296876 -12.330020141601564 27.78000183105469 0.0H31.699951171875L15.8499755859375 -36.54998779296875L0.0 0.0H3.9199493408203123L9.159951782226562 -12.570016479492189L9.489947509765626 -13.330007934570313Z" transform="translate(891.300049,495.000000)" fill="#1D2027"/></g></svg>